HIERARCHY
ROOT reference
{
  OFFSET 0 0 0
  CHANNELS 6 Xposition Yposition Zposition Zrotation Xrotation Yrotation
  JOINT Hips
  {
    OFFSET 355.919 86.4685 225.794
    CHANNELS 3 Zrotation Xrotation Yrotation
    JOINT RightUpLeg
    {
      OFFSET -9.27022 -1.53975 0.0125073
      CHANNELS 3 Zrotation Xrotation Yrotation
      JOINT RightLeg
      {
        OFFSET 0.013591 -41.8786 0.0152335
        CHANNELS 3 Zrotation Xrotation Yrotation
        JOINT RightFoot
        {
          OFFSET -0.635566 -43.1371 -0.638083
          CHANNELS 3 Zrotation Xrotation Yrotation
          End Site
          {
            OFFSET 0 -7.69 17.5
          }
        }
      }
    }
    JOINT LeftUpLeg
    {
      OFFSET 9.3307 -1.62449 -0.0651281
      CHANNELS 3 Zrotation Xrotation Yrotation
      JOINT LeftLeg
      {
        OFFSET 0.136006 -41.8606 -0.0682192
        CHANNELS 3 Zrotation Xrotation Yrotation
        JOINT LeftFoot
        {
          OFFSET 0.555276 -40.3296 1.11688
          CHANNELS 3 Zrotation Xrotation Yrotation
          End Site
          {
            OFFSET 0 -7.69 17.5
          }
        }
      }
    }
    JOINT Spine
    {
      OFFSET 0.0523142 14.2998 0.0636653
      CHANNELS 3 Zrotation Xrotation Yrotation
      JOINT Spine1
      {
        OFFSET 0.0411785 9.71676 0.0113233
        CHANNELS 3 Zrotation Xrotation Yrotation
        JOINT Spine2
        {
          OFFSET 0.0674534 10.1151 -0.00111457
          CHANNELS 3 Zrotation Xrotation Yrotation
          JOINT Spine3
          {
            OFFSET 0.048863 9.72171 0.0174249
            CHANNELS 3 Zrotation Xrotation Yrotation
            JOINT Neck
            {
              OFFSET 0.180558 10.3768 0.0617075
              CHANNELS 3 Zrotation Xrotation Yrotation
              JOINT Head
              {
                OFFSET 0.135918 9.47305 0.0380206
                CHANNELS 3 Zrotation Xrotation Yrotation
                End Site
                {
                  OFFSET 0 15.95 0
                }
              }
            }
            JOINT RightShoulder
            {
              OFFSET -3.15694 6.89408 0.00348883
              CHANNELS 3 Zrotation Xrotation Yrotation
              JOINT RightArm
              {
                OFFSET -12.7409 -0.0031918 0.045926
                CHANNELS 3 Zrotation Xrotation Yrotation
                JOINT RightForeArm
                {
                  OFFSET -26.5086 -0.0806184 0.00400063
                  CHANNELS 3 Zrotation Xrotation Yrotation
                  JOINT RightHand
                  {
                    OFFSET -26.0338 -0.025514 0.155859
                    CHANNELS 3 Zrotation Xrotation Yrotation
                    JOINT RightHandThumb1
                    {
                      OFFSET -2.48905 0.190105 3.12053
                      CHANNELS 3 Zrotation Xrotation Yrotation
                      JOINT RightHandThumb2
                      {
                        OFFSET -3.68274 0 0
                        CHANNELS 3 Zrotation Xrotation Yrotation
                        JOINT RightHandThumb3
                        {
                          OFFSET -2.55832 0 0
                          CHANNELS 3 Zrotation Xrotation Yrotation
                          End Site
                          {
                            OFFSET -2.194 0 0
                          }
                        }
                      }
                    }
                    JOINT RightInHandIndex
                    {
                      OFFSET -3.22368 0.508421 1.97842
                      CHANNELS 3 Zrotation Xrotation Yrotation
                      JOINT RightHandIndex1
                      {
                        OFFSET -5.21684 -0.091368 0.999158
                        CHANNELS 3 Zrotation Xrotation Yrotation
                        JOINT RightHandIndex2
                        {
                          OFFSET -3.61937 0 0
                          CHANNELS 3 Zrotation Xrotation Yrotation
                          JOINT RightHandIndex3
                          {
                            OFFSET -2.0521 0 0
                            CHANNELS 3 Zrotation Xrotation Yrotation
                            End Site
                            {
                              OFFSET -1.805 0 0
                            }
                          }
                        }
                      }
                    }
                    JOINT RightInHandMiddle
                    {
                      OFFSET -3.38211 0.517263 0.756737
                      CHANNELS 3 Zrotation Xrotation Yrotation
                      JOINT RightHandMiddle1
                      {
                        OFFSET -5.17411 -0.084 0.313895
                        CHANNELS 3 Zrotation Xrotation Yrotation
                        JOINT RightHandMiddle2
                        {
                          OFFSET -3.94947 0 0
                          CHANNELS 3 Zrotation Xrotation Yrotation
                          JOINT RightHandMiddle3
                          {
                            OFFSET -2.47579 0 0
                            CHANNELS 3 Zrotation Xrotation Yrotation
                            End Site
                            {
                              OFFSET -1.975 0 0
                            }
                          }
                        }
                      }
                    }
                    JOINT RightInHandRing
                    {
                      OFFSET -3.36516 0.537895 -0.128947
                      CHANNELS 3 Zrotation Xrotation Yrotation
                      JOINT RightHandRing1
                      {
                        OFFSET -4.63474 -0.022105 -0.478947
                        CHANNELS 3 Zrotation Xrotation Yrotation
                        JOINT RightHandRing2
                        {
                          OFFSET -3.44238 0 0
                          CHANNELS 3 Zrotation Xrotation Yrotation
                          JOINT RightHandRing3
                          {
                            OFFSET -2.3881 0 0
                            CHANNELS 3 Zrotation Xrotation Yrotation
                            End Site
                            {
                              OFFSET -1.857 0 0
                            }
                          }
                        }
                      }
                    }
                    JOINT RightInHandPinky
                    {
                      OFFSET -3.16105 0.469368 -1.20179
                      CHANNELS 3 Zrotation Xrotation Yrotation
                      JOINT RightHandPinky1
                      {
                        OFFSET -4.14105 -0.022105 -1.09053
                        CHANNELS 3 Zrotation Xrotation Yrotation
                        JOINT RightHandPinky2
                        {
                          OFFSET -2.75653 0 0
                          CHANNELS 3 Zrotation Xrotation Yrotation
                          JOINT RightHandPinky3
                          {
                            OFFSET -1.74189 0 0
                            CHANNELS 3 Zrotation Xrotation Yrotation
                            End Site
                            {
                              OFFSET -1.645 0 0
                            }
                          }
                        }
                      }
                    }
                  }
                }
              }
            }
            JOINT LeftShoulder
            {
              OFFSET 3.22505 6.94333 0.022328
              CHANNELS 3 Zrotation Xrotation Yrotation
              JOINT LeftArm
              {
                OFFSET 12.8536 -0.0213048 -0.00476292
                CHANNELS 3 Zrotation Xrotation Yrotation
                JOINT LeftForeArm
                {
                  OFFSET 26.4992 -0.0497473 -0.102272
                  CHANNELS 3 Zrotation Xrotation Yrotation
                  JOINT LeftHand
                  {
                    OFFSET 25.9818 -0.0182282 -0.0189166
                    CHANNELS 3 Zrotation Xrotation Yrotation
                    JOINT LeftHandThumb1
                    {
                      OFFSET 2.48905 0.190105 3.12053
                      CHANNELS 3 Zrotation Xrotation Yrotation
                      JOINT LeftHandThumb2
                      {
                        OFFSET 3.68274 0 0
                        CHANNELS 3 Zrotation Xrotation Yrotation
                        JOINT LeftHandThumb3
                        {
                          OFFSET 2.55832 0 0
                          CHANNELS 3 Zrotation Xrotation Yrotation
                          End Site
                          {
                            OFFSET 2.194 0 0
                          }
                        }
                      }
                    }
                    JOINT LeftInHandIndex
                    {
                      OFFSET 3.22368 0.508421 1.97842
                      CHANNELS 3 Zrotation Xrotation Yrotation
                      JOINT LeftHandIndex1
                      {
                        OFFSET 5.21684 -0.091368 0.999158
                        CHANNELS 3 Zrotation Xrotation Yrotation
                        JOINT LeftHandIndex2
                        {
                          OFFSET 3.61937 0 0
                          CHANNELS 3 Zrotation Xrotation Yrotation
                          JOINT LeftHandIndex3
                          {
                            OFFSET 2.0521 0 0
                            CHANNELS 3 Zrotation Xrotation Yrotation
                            End Site
                            {
                              OFFSET 1.805 0 0
                            }
                          }
                        }
                      }
                    }
                    JOINT LeftInHandMiddle
                    {
                      OFFSET 3.38211 0.517263 0.756737
                      CHANNELS 3 Zrotation Xrotation Yrotation
                      JOINT LeftHandMiddle1
                      {
                        OFFSET 5.17411 -0.084 0.313895
                        CHANNELS 3 Zrotation Xrotation Yrotation
                        JOINT LeftHandMiddle2
                        {
                          OFFSET 3.94947 0 0
                          CHANNELS 3 Zrotation Xrotation Yrotation
                          JOINT LeftHandMiddle3
                          {
                            OFFSET 2.47579 0 0
                            CHANNELS 3 Zrotation Xrotation Yrotation
                            End Site
                            {
                              OFFSET 1.975 0 0
                            }
                          }
                        }
                      }
                    }
                    JOINT LeftInHandRing
                    {
                      OFFSET 3.36516 0.537895 -0.128947
                      CHANNELS 3 Zrotation Xrotation Yrotation
                      JOINT LeftHandRing1
                      {
                        OFFSET 4.63474 -0.022105 -0.478947
                        CHANNELS 3 Zrotation Xrotation Yrotation
                        JOINT LeftHandRing2
                        {
                          OFFSET 3.44238 0 0
                          CHANNELS 3 Zrotation Xrotation Yrotation
                          JOINT LeftHandRing3
                          {
                            OFFSET 2.3881 0 0
                            CHANNELS 3 Zrotation Xrotation Yrotation
                            End Site
                            {
                              OFFSET 1.857 0 0
                            }
                          }
                        }
                      }
                    }
                    JOINT LeftInHandPinky
                    {
                      OFFSET 3.16105 0.469368 -1.20179
                      CHANNELS 3 Zrotation Xrotation Yrotation
                      JOINT LeftHandPinky1
                      {
                        OFFSET 4.14105 -0.022105 -1.09053
                        CHANNELS 3 Zrotation Xrotation Yrotation
                        JOINT LeftHandPinky2
                        {
                          OFFSET 2.75653 0 0
                          CHANNELS 3 Zrotation Xrotation Yrotation
                          JOINT LeftHandPinky3
                          {
                            OFFSET 1.74189 0 0
                            CHANNELS 3 Zrotation Xrotation Yrotation
                            End Site
                            {
                              OFFSET 1.645 0 0
                            }
                          }
                        }
                      }
                    }
                  }
                }
              }
            }
          }
        }
      }
    }
  }
}
MOTION
Frames: 2
Frame Time: 0.00833333
3.000000000000000000e+02 0.000000000000000000e+00 0.000000000000000000e+00 0.000000000000000000e+00 0.000000000000000000e+00 0.000000000000000000e+00 -1.414860957588449757e-02 3.414521605670722826e-02 4.769777521936618969e-02 -5.541442170917700027e-02 1.340733052869920623e-02 9.973498267145686214e-02 3.638887453591150845e-01 -1.189648465376386480e-02 -8.452751253734210879e-01 -3.099807519229408337e-01 4.347378567595061583e-02 5.295427623947097651e-01 -1.514624859634609681e-02 -3.755401951761659640e-02 -7.569838040156398606e-02 8.533029391561525179e-02 6.482159500927286988e-02 -1.591904293699973882e-01 -4.389738218230653660e-02 -8.838650164467030945e-02 1.140986385473846121e-01 3.679935304975635868e-02 1.574081493486759187e-02 -4.202009885841084119e-02 9.341450312213960688e-03 9.140441047830149797e-04 -9.890930003663048198e-03 1.415051455490918403e-02 6.392097830229849509e-04 -1.486444686971708472e-02 9.249419950100589176e-04 -1.211361789552193148e-03 3.541932908218008418e-03 -9.823564027954866194e-04 -3.397031388705700882e-03 1.327094609485147611e-02 2.096421974807790439e-02 -1.976224127679562619e-05 5.320661315101313238e-02 -9.154758741093579899e-02 -6.475343217596615797e-02 2.714373479755179397e-01 -2.761905851099911158e-01 1.935638503821014988e-01 2.803048334545256703e-01 -9.884454375191837894e-01 2.334456086789975238e-01 -2.170101636824352642e+00 2.094150509002671301e-01 -1.128645755791053001e-02 2.605841109465966143e-01 0.000000000000000000e+00 0.000000000000000000e+00 0.000000000000000000e+00 -3.169835855591197417e-15 -3.476056846345225472e-16 0.000000000000000000e+00 -1.657709461299600980e-15 -1.055076356084356411e-15 0.000000000000000000e+00 -4.489327871021790931e-16 4.276131602469169378e-15 -1.304337055452222351e-15 0.000000000000000000e+00 0.000000000000000000e+00 0.000000000000000000e+00 0.000000000000000000e+00 1.517439840761467405e-15 -1.658085836952625638e-15 0.000000000000000000e+00 1.447027452588501351e-15 1.443169513770214194e-14 -4.489327871021790931e-16 4.276131602469169378e-15 -1.304337055452222351e-15 0.000000000000000000e+00 -3.168799393998077081e-15 4.174392845540827117e-15 0.000000000000000000e+00 8.144346556343353334e-16 -1.245255643727971927e-14 0.000000000000000000e+00 4.289902958528656883e-15 3.488709445156087909e-14 -4.489327871021790931e-16 4.276131602469169378e-15 -1.304337055452222351e-15 0.000000000000000000e+00 0.000000000000000000e+00 0.000000000000000000e+00 0.000000000000000000e+00 1.293642588577557798e-16 2.574731763642258766e-15 0.000000000000000000e+00 1.551930671268562916e-15 1.730736278824984341e-14 -4.489327871021790931e-16 4.276131602469169378e-15 -1.304337055452222351e-15 0.000000000000000000e+00 0.000000000000000000e+00 0.000000000000000000e+00 0.000000000000000000e+00 -4.787475170308256397e-15 -8.243532852737925916e-15 0.000000000000000000e+00 6.507629849060982209e-15 2.778156038356103417e-14 1.488102104095848366e-01 -1.358074294701234197e-01 -5.763531426848503836e-01 -3.550788069384859802e-01 -2.299681939115676976e-01 3.361160369648240609e-01 4.272027876992627315e-01 -5.239667411397280761e-01 5.318001595873502740e-01 -1.409660632902564291e-02 2.999977779326341021e-01 6.108116538971208181e-02 0.000000000000000000e+00 0.000000000000000000e+00 0.000000000000000000e+00 6.437695059781691193e-15 8.750564527338936214e-16 0.000000000000000000e+00 -6.230857758706926864e-15 -3.577504795050365788e-15 0.000000000000000000e+00 -2.753435734848977222e-16 -6.932444719707786428e-16 -1.655638802947144148e-15 0.000000000000000000e+00 0.000000000000000000e+00 0.000000000000000000e+00 0.000000000000000000e+00 -1.917475003696056964e-15 -2.932367878369964038e-15 0.000000000000000000e+00 1.071964705668361327e-15 -1.245884672260597271e-14 -2.753435734848977222e-16 -6.932444719707786428e-16 -1.655638802947144148e-15 0.000000000000000000e+00 -1.669950785192060519e-15 2.941468176715437581e-16 0.000000000000000000e+00 2.613343257030868153e-15 2.853924300085836401e-16 0.000000000000000000e+00 -3.661232089998769528e-16 -1.210832057320642079e-14 -2.753435734848977222e-16 -6.932444719707786428e-16 -1.655638802947144148e-15 0.000000000000000000e+00 0.000000000000000000e+00 0.000000000000000000e+00 0.000000000000000000e+00 1.432489102460152561e-15 -4.831841991388295477e-15 0.000000000000000000e+00 -2.713221996002979226e-16 9.424249966874367093e-16 -2.753435734848977222e-16 -6.932444719707786428e-16 -1.655638802947144148e-15 0.000000000000000000e+00 0.000000000000000000e+00 0.000000000000000000e+00 0.000000000000000000e+00 -5.263998754925608614e-16 1.761729258458938990e-15 0.000000000000000000e+00 -2.917862090355069513e-15 -8.940481804432042385e-15
3.000000000000000000e+02 0.000000000000000000e+00 0.000000000000000000e+00 0.000000000000000000e+00 0.000000000000000000e+00 0.000000000000000000e+00 -4.359019926678556374e-03 1.400856063453931495e-02 1.044395610332494832e-02 -2.826697896792443321e-02 3.934211518487034515e-03 9.564936939263486704e-02 2.542832240139753508e-01 -1.182302429934372137e-02 -5.689693461953166942e-01 -2.073538544816069529e-01 3.399935337740044028e-02 3.503230681093262855e-01 -5.228319512460532711e-03 -4.000096350654409882e-04 -4.808798823828586144e-02 2.371721570769304288e-02 4.550882393573818518e-02 -6.226294606920725061e-02 -2.390565489461322912e-02 -7.287334841676561259e-02 5.891629062394310168e-02 1.809355962043291202e-02 3.877854282457489712e-03 -2.674408192319685518e-02 5.580059769546975683e-03 -4.173885813855188654e-04 -6.338876534002135278e-03 8.360504237748714318e-03 -1.003399470594982124e-03 -9.894364019109036512e-03 8.191099887786498258e-04 -1.685721603604088637e-03 3.257850864145019933e-03 -1.174481694167841487e-03 -3.955345084583319383e-03 1.312051623272567080e-02 1.761535438686113661e-02 -1.115681365389580362e-02 5.175173697377191684e-02 8.370108007997170002e-03 1.715627180939344881e-02 -1.572628850711472320e-02 -1.682393250994645706e-01 4.571480465946817923e-02 1.481620865376326035e-01 -5.080362873593492479e-01 5.392449860933949957e-01 -1.361909353509041409e+00 1.714581261402638168e-01 -4.190579839856016231e-01 6.682603475192960829e-01 0.000000000000000000e+00 0.000000000000000000e+00 0.000000000000000000e+00 4.750083720127954608e-16 -6.430806145363866204e-16 0.000000000000000000e+00 1.046912765773605105e-15 -6.540925989290861872e-16 0.000000000000000000e+00 -2.464237230028814416e-15 5.425836727754270010e-16 7.843949461762351045e-16 0.000000000000000000e+00 0.000000000000000000e+00 0.000000000000000000e+00 0.000000000000000000e+00 3.572370017407528446e-16 5.475207936332975206e-16 0.000000000000000000e+00 3.919309292489466053e-16 1.221188894085092051e-14 -2.464237230028814416e-15 5.425836727754270010e-16 7.843949461762351045e-16 0.000000000000000000e+00 2.244073593457757249e-16 9.066230766344736143e-16 0.000000000000000000e+00 -1.486630536285395165e-15 -3.907711138789186410e-15 0.000000000000000000e+00 1.259653034839485850e-15 9.477776191982868791e-15 -2.464237230028814416e-15 5.425836727754270010e-16 7.843949461762351045e-16 0.000000000000000000e+00 0.000000000000000000e+00 0.000000000000000000e+00 0.000000000000000000e+00 -6.845663268137734774e-15 2.690661073504923229e-15 0.000000000000000000e+00 -2.848408742107118774e-15 4.646232031060058067e-15 -2.464237230028814416e-15 5.425836727754270010e-16 7.843949461762351045e-16 0.000000000000000000e+00 0.000000000000000000e+00 0.000000000000000000e+00 0.000000000000000000e+00 -2.801935068772694965e-15 -3.140293396591170089e-15 0.000000000000000000e+00 5.912249102725097062e-15 2.311020114225737962e-14 1.454832081974767322e-01 -1.204426652861554925e-01 -5.072981059396789449e-01 -4.039689344804825999e-01 -2.327500849547256279e-01 3.755429130460449794e-01 2.784777283239001089e-01 -2.537934429139067083e-01 3.158684520420262931e-01 -4.043669411019894244e-02 -3.238900551197289590e-01 -1.746597591279519524e-01 0.000000000000000000e+00 0.000000000000000000e+00 0.000000000000000000e+00 1.901285111919650286e-15 1.351724692597755787e-15 0.000000000000000000e+00 -6.439135527517112328e-15 1.244199171582545433e-15 0.000000000000000000e+00 -4.061439688808989678e-15 -1.054426986067588348e-15 -7.164549356544511704e-16 0.000000000000000000e+00 0.000000000000000000e+00 0.000000000000000000e+00 0.000000000000000000e+00 -6.849526784449302593e-16 -1.578642143539946219e-15 0.000000000000000000e+00 1.831836411685410848e-15 -4.579328128204816597e-15 -4.061439688808989678e-15 -1.054426986067588348e-15 -7.164549356544511704e-16 0.000000000000000000e+00 -5.993304289005900363e-16 9.451412512811448027e-16 0.000000000000000000e+00 8.349585251295088059e-16 -2.994851845643685851e-15 0.000000000000000000e+00 6.692542719826667917e-16 -7.870577683261156320e-15 -4.061439688808989678e-15 -1.054426986067588348e-15 -7.164549356544511704e-16 0.000000000000000000e+00 0.000000000000000000e+00 0.000000000000000000e+00 0.000000000000000000e+00 2.782032316592557073e-15 -3.396826377221001867e-15 0.000000000000000000e+00 1.651262044215882477e-15 -2.251818660345277930e-15 -4.061439688808989678e-15 -1.054426986067588348e-15 -7.164549356544511704e-16 0.000000000000000000e+00 0.000000000000000000e+00 0.000000000000000000e+00 0.000000000000000000e+00 -2.974717472041431516e-16 9.890690843365757527e-16 0.000000000000000000e+00 -5.508711587795389006e-16 -1.529165205247774340e-15
